<?xml version="1.0" encoding="utf-8"?>
<!-- Generator: Adobe Illustrator 25.4.1, SVG Export Plug-In . SVG Version: 6.00 Build 0)  -->
<svg version="1.1" id="Layer_1" xmlns="http://www.w3.org/2000/svg" xmlns:xlink="http://www.w3.org/1999/xlink" x="0px" y="0px"
	 viewBox="0 0 28.9 29" style="enable-background:new 0 0 28.9 29;" xml:space="preserve">
<style type="text/css">
	.st0{fill:#FF4500;}
	.st1{fill:#FFFFFF;}
</style>
<g>
	<g transform="translate(-11 -12)">
		<g>
			<g>
				<g>
					<path id="vor3h" class="st0" d="M11,26.8c-0.2-8,6.1-14.6,14.1-14.8s14.6,6.1,14.8,14.1c0,0.3,0,0.5,0,0.8
						C39.7,34.9,33,41.2,25,41C17.4,40.7,11.2,34.5,11,26.8L11,26.8z"/>
				</g>
			</g>
			<g>
				<g>
					<path id="vor3i" class="st1" d="M33.9,28.7c0,0.2,0,0.4,0,0.6c0,3.3-3.8,5.9-8.5,5.9s-8.5-2.6-8.5-5.9c0-0.2,0-0.4,0-0.6
						c-1.1-0.5-1.5-1.7-1.1-2.8c0.3-0.8,1.1-1.3,1.9-1.2c0.6,0,1.1,0.2,1.5,0.6c1.7-1.1,3.7-1.8,5.7-1.8l1.1-5
						c0-0.1,0.1-0.2,0.1-0.2c0.1-0.1,0.2-0.1,0.3-0.1l3.5,0.8c0.4-0.7,1.3-1.1,2-0.7c0.7,0.4,1.1,1.3,0.7,2c-0.4,0.7-1.3,1.1-2,0.7
						c-0.5-0.2-0.8-0.7-0.8-1.3L26.7,19l-1,4.5c2.2,0.1,4.2,0.8,5.6,1.8c0.8-0.8,2.2-0.8,3,0c0.4,0.4,0.6,0.9,0.6,1.5
						C35.2,27.7,34.6,28.4,33.9,28.7z M22.2,29.8c0.8,0,1.5-0.7,1.5-1.5s-0.7-1.5-1.5-1.5s-1.5,0.7-1.5,1.5S21.3,29.8,22.2,29.8z
						 M29.1,31.7c-0.2-0.2-0.4-0.2-0.5,0c-0.6,0.7-2,0.9-3,0.9s-2.4-0.2-3-0.9c-0.2-0.2-0.4-0.2-0.5,0c-0.2,0.2-0.2,0.4,0,0.5
						c1,1,3,1.1,3.6,1.1s2.5-0.1,3.6-1.1C29.2,32.1,29.2,31.9,29.1,31.7z M30.3,28.3c0-0.8-0.7-1.5-1.5-1.5s-1.5,0.7-1.5,1.5
						s0.7,1.5,1.5,1.5S30.3,29.1,30.3,28.3z"/>
				</g>
			</g>
		</g>
	</g>
</g>
</svg>
