<?xml version="1.0" encoding="UTF-8" standalone="no"?>
<!-- Created with Inkscape (http://www.inkscape.org/) -->

<svg
   width="209.55mm"
   height="55.297916mm"
   viewBox="0 0 209.55 55.297916"
   version="1.1"
   id="svg1"
   xml:space="preserve"
   xmlns="http://www.w3.org/2000/svg"
   xmlns:svg="http://www.w3.org/2000/svg"><defs
     id="defs1" /><g
     id="layer1"
     transform="translate(-14.022915,-155.70729)"><path
       style="fill:#f36c6c;stroke:none"
       d="m 118.53333,161.26354 c -0.15308,2.00702 -1.75872,2.04512 -3.43958,2.38125 -3.64598,0.7291 -7.40606,1.8217 -11.1125,2.11667 l 0.52917,4.23333 13.75833,-2.38125 -1.56382,22.75417 -1.08201,16.13958 4.49791,0.26458 1.8284,-29.10416 0.50794,-7.9375 0.46914,-2.79589 5.13202,-1.43724 14.02292,-2.64604 -0.52917,-4.23333 c -7.90242,0.1631 -15.02625,4.12966 -23.01875,2.64583 m -33.602081,1.5875 0.529167,4.23333 c 1.512585,-0.11937 5.831443,-1.49932 6.984102,-0.36849 1.347948,1.32241 0.824586,6.20696 1.065681,8.04141 1.068192,8.12767 0.636371,16.90223 2.53355,24.87083 l -7.00881,-2.08175 -1.457856,3.66925 c 5.926826,2.28635 12.530567,5.80286 18.785417,6.87917 l 1.32292,-3.96875 -6.98411,-2.98391 -0.53651,-2.83692 -0.704132,-7.14375 -2.358585,-25.66459 5.291667,-0.52916 -0.52917,-4.23334 -16.933331,2.11667 m 100.277081,-0.79375 c -1.28359,2.87494 -3.18806,2.75425 -6.08541,3.33383 -4.41154,0.88248 -9.01069,2.13023 -13.49375,2.487 l 0.52916,4.23334 16.66875,-2.91042 -4.85069,14.2875 -5.20347,16.13958 h -0.52917 l -8.20208,-12.43541 -3.70417,2.11666 c 1.34649,4.06094 5.25013,8.11673 7.67967,11.64167 1.05652,1.5329 2.62403,3.08143 2.63908,5.02708 l 1.85208,1.5875 2.11667,-0.26458 1.5875,-1.85208 c -0.63635,-2.90735 1.2002,-6.24643 2.11667,-8.99584 2.17256,-6.51767 4.27348,-13.06116 6.43819,-19.57916 0.7189,-2.16464 1.3873,-7.06115 3.19765,-8.50444 1.05617,-0.84202 3.09629,-0.86203 4.38707,-1.08671 3.24742,-0.56525 6.50053,-1.52418 9.78959,-1.78594 l -0.52917,-4.23333 -11.90625,2.02276 -4.49792,-1.22901 M 21.431248,161.52812 c -1.217442,4.11876 -1.058333,9.72139 -1.058333,14.02292 -1.414662,-0.73231 -3.914037,0.16525 -3.914037,2.11667 0,1.78524 2.894882,2.64905 3.157851,4.49791 0.343309,2.41372 -0.292066,5.26031 -0.521817,7.67292 -0.325139,3.4143 -0.211887,6.94265 -0.838664,10.31875 l 4.233334,0.52917 1.322916,-14.55209 c 4.425183,4.42519 8.307928,9.57108 12.964584,13.7416 1.347774,1.20706 4.371842,-0.1161 3.877289,-2.09993 -0.314597,-1.26195 -2.13739,-2.47969 -2.971254,-3.43958 -2.674237,-3.07844 -5.558053,-6.01147 -8.33805,-8.99584 -0.953925,-1.02405 -3.744711,-2.9406 -3.676198,-4.49771 0.05902,-1.34124 2.762402,-3.06806 3.699879,-3.89342 2.678965,-2.35856 5.319447,-4.76966 7.937501,-7.19581 0.945341,-0.87604 2.407191,-1.73991 2.976152,-2.93389 0.680254,-1.42753 -1.910599,-3.68951 -3.240736,-2.81079 -4.573536,3.02139 -7.918265,7.86831 -12.435417,11.01287 l 1.058334,-12.96458 -4.233334,-0.52917 m 32.014584,0.26459 -8.557718,12.43541 -3.348532,5.29167 10.31875,7.61739 3.263605,2.98963 -1.734083,4.47423 -5.233689,11.37708 3.96875,1.85209 11.377084,-24.60625 -3.96875,-1.85209 -2.116667,4.49792 c -2.194872,-1.89932 -4.561862,-3.64242 -6.879167,-5.39068 -0.731088,-0.55156 -2.283646,-1.36397 -2.502722,-2.32735 -0.256286,-1.12701 1.659759,-3.05898 2.2755,-3.92364 2.20188,-3.09197 5.646998,-6.71521 6.841806,-10.31875 l -3.704167,-2.11666 m 12.7,0.52916 1.058334,43.65625 h 4.233333 l -0.264583,-12.7 0.271935,-5.02708 6.607231,-6.87917 0.529167,20.10834 h 4.233334 l -0.79375,-38.36459 h -4.233334 c 0,2.64344 -0.06086,5.29491 0.0039,7.9375 0.02938,1.1991 0.507701,2.53858 0.06431,3.70417 -1.042064,2.73938 -4.895842,5.35682 -6.947356,7.40833 l -0.529166,-19.84375 h -4.233334 m 87.312497,2.64584 -4.23333,-1.05834 c -0.46892,3.60904 -4.30789,3.50545 -7.14375,4.7625 l 1.32292,3.96875 4.7625,-1.32291 c -0.15651,7.58108 -1.76322,15.50306 -2.79834,23.01875 -0.34607,2.51267 -0.007,6.82418 -1.39743,8.97113 -1.51846,2.34502 -5.6222,4.13572 -7.97507,5.58095 1.31591,3.45853 5.02765,2.10421 7.40834,0.52917 0.2919,1.36921 3.02925,1.2622 4.23333,1.32291 0.16421,-1.29936 0.1114,-3.06034 0.79068,-4.20863 1.33051,-2.24912 5.68233,-4.3237 7.94057,-5.58095 l -2.11667,-3.70417 -5.29166,3.175 c 0.94724,-7.49525 1.85986,-14.99736 2.8359,-22.48958 0.26451,-2.03039 -0.0425,-6.49144 1.32925,-8.06714 1.53221,-1.76006 6.11809,-2.09136 8.27026,-3.04536 l -1.32291,-3.96875 z"
       id="path1" /></g></svg>
